<svg width="33" height="32" viewBox="0 0 33 32" fill="none" xmlns="http://www.w3.org/2000/svg">
<path d="M11.333 28H21.9997M16.6663 22.6667V28M9.73301 22.6667H23.5997C25.8399 22.6667 26.96 22.6667 27.8156 22.2307C28.5683 21.8472 29.1802 21.2353 29.5637 20.4826C29.9997 19.627 29.9997 18.5069 29.9997 16.2667V10.4C29.9997 8.15979 29.9997 7.03969 29.5637 6.18404C29.1802 5.43139 28.5683 4.81947 27.8156 4.43597C26.96 4 25.8399 4 23.5997 4H9.73301C7.4928 4 6.37269 4 5.51705 4.43597C4.7644 4.81947 4.15248 5.43139 3.76898 6.18404C3.33301 7.03969 3.33301 8.15979 3.33301 10.4V16.2667C3.33301 18.5069 3.33301 19.627 3.76898 20.4826C4.15248 21.2353 4.7644 21.8472 5.51705 22.2307C6.37269 22.6667 7.4928 22.6667 9.73301 22.6667Z" stroke="#91FF02" stroke-width="3" stroke-linecap="round" stroke-linejoin="round"/>
</svg>
